# xmcd CD database file
#
# Track frame offsets:
#	150
#	17245
#	34157
#	54097
#	72217
#	86845
#	102757
#	120425
#	134475
#	151160
#	167880
#	181325
#	196092
#	209420
#
# Disc length: 3083 seconds
#
# Revision: 2
# Processed by: cddbd v1.4PL0 Copyright (c) Steve Scherf et al.
# Submitted via: CDex 1.50beta9
#
DISCID=b70c090e
DTITLE=Johan Stengård - Psalmer i ny skrud
DYEAR=1900
DGENRE=Jazz
TTITLE0=Nu är det morgon
TTITLE1=Bliv kvar hos mig
TTITLE2=O store Gud
TTITLE3=En vänlig grönskas rika dräkt
TTITLE4=Den blomstertid nu kommer
TTITLE5=I denna ljuva sommartid
TTITLE6=Amazing grace
TTITLE7=Bred dina vida vingar
TTITLE8=Nu sjunker bullret
TTITLE9=Din klara sol
TTITLE10=Bereden väg för Herran
TTITLE11=O du saliga
TTITLE12=Det är en ros utsprungen
TTITLE13=Härlig är jorden
EXTD=
EXTT0=
EXTT1=
EXTT2=
EXTT3=
EXTT4=
EXTT5=
EXTT6=
EXTT7=
EXTT8=
EXTT9=
EXTT10=
EXTT11=
EXTT12=
EXTT13=
PLAYORDER=
